<mxfile host="app.diagrams.net" modified="2024-07-04T11:59:10.604Z" agent="Mozilla/5.0 (Macintosh; Intel Mac OS X 10_15_7) AppleWebKit/537.36 (KHTML, like Gecko) Chrome/125.0.0.0 Safari/537.36" etag="TruUeU5r3voINzqp0VBv" version="24.6.4" type="github">
  <diagram name="第 1 页" id="VkmRc6qr4iYUPZSgbM_z">
    <mxGraphModel dx="2651" dy="728" grid="1" gridSize="10" guides="1" tooltips="1" connect="1" arrows="1" fold="1" page="1" pageScale="1" pageWidth="1169" pageHeight="827" math="0" shadow="0">
      <root>
        <mxCell id="0" />
        <mxCell id="1" parent="0" />
        <mxCell id="jki05cI2nz15I3PhLBkj-3" style="edgeStyle=orthogonalEdgeStyle;rounded=0;orthogonalLoop=1;jettySize=auto;html=1;entryX=0.5;entryY=0;entryDx=0;entryDy=0;" edge="1" parent="1" source="jki05cI2nz15I3PhLBkj-1" target="jki05cI2nz15I3PhLBkj-2">
          <mxGeometry relative="1" as="geometry" />
        </mxCell>
        <mxCell id="jki05cI2nz15I3PhLBkj-4" value="Logistics Information" style="edgeLabel;html=1;align=center;verticalAlign=middle;resizable=0;points=[];" vertex="1" connectable="0" parent="jki05cI2nz15I3PhLBkj-3">
          <mxGeometry x="-0.2216" y="2" relative="1" as="geometry">
            <mxPoint as="offset" />
          </mxGeometry>
        </mxCell>
        <mxCell id="jki05cI2nz15I3PhLBkj-1" value="物流合作&lt;div&gt;伙伴&lt;/div&gt;" style="rounded=0;whiteSpace=wrap;html=1;" vertex="1" parent="1">
          <mxGeometry x="-390" y="10" width="80" height="70" as="geometry" />
        </mxCell>
        <mxCell id="jki05cI2nz15I3PhLBkj-25" style="edgeStyle=orthogonalEdgeStyle;rounded=0;orthogonalLoop=1;jettySize=auto;html=1;entryX=0;entryY=0.5;entryDx=0;entryDy=0;" edge="1" parent="1" source="jki05cI2nz15I3PhLBkj-2" target="jki05cI2nz15I3PhLBkj-9">
          <mxGeometry relative="1" as="geometry" />
        </mxCell>
        <mxCell id="jki05cI2nz15I3PhLBkj-33" value="Msg dispatcher" style="edgeLabel;html=1;align=center;verticalAlign=middle;resizable=0;points=[];" vertex="1" connectable="0" parent="jki05cI2nz15I3PhLBkj-25">
          <mxGeometry x="-0.4757" y="2" relative="1" as="geometry">
            <mxPoint as="offset" />
          </mxGeometry>
        </mxCell>
        <mxCell id="jki05cI2nz15I3PhLBkj-2" value="API Gateway" style="rounded=0;whiteSpace=wrap;html=1;" vertex="1" parent="1">
          <mxGeometry x="-410" y="150" width="120" height="60" as="geometry" />
        </mxCell>
        <mxCell id="jki05cI2nz15I3PhLBkj-9" value="&lt;div&gt;&lt;br&gt;&lt;/div&gt;&lt;div&gt;&lt;br&gt;&lt;/div&gt;&lt;div&gt;&lt;br&gt;&lt;/div&gt;&lt;div&gt;&lt;br&gt;&lt;/div&gt;&lt;div&gt;&lt;br&gt;&lt;/div&gt;&lt;div&gt;&lt;br&gt;&lt;/div&gt;&lt;div&gt;&lt;br&gt;&lt;/div&gt;&lt;div&gt;&lt;br&gt;&lt;/div&gt;&lt;div&gt;&lt;br&gt;&lt;/div&gt;&lt;div&gt;&lt;br&gt;&lt;/div&gt;&lt;div&gt;&lt;br&gt;&lt;/div&gt;&lt;div&gt;...&lt;/div&gt;" style="rounded=0;whiteSpace=wrap;html=1;" vertex="1" parent="1">
          <mxGeometry x="-450" y="269" width="200" height="220" as="geometry" />
        </mxCell>
        <mxCell id="jki05cI2nz15I3PhLBkj-26" value="&amp;nbsp; &amp;nbsp; &amp;nbsp; &amp;nbsp; &amp;nbsp; &amp;nbsp; &amp;nbsp; &amp;nbsp; &amp;nbsp; &amp;nbsp; &amp;nbsp; &amp;nbsp; &amp;nbsp; &amp;nbsp; &amp;nbsp; &amp;nbsp; &amp;nbsp; &amp;nbsp; &amp;nbsp; ..." style="rounded=0;whiteSpace=wrap;html=1;" vertex="1" parent="1">
          <mxGeometry x="-159" y="269" width="289" height="230" as="geometry" />
        </mxCell>
        <mxCell id="jki05cI2nz15I3PhLBkj-10" value="Msg Publisher&lt;span style=&quot;background-color: initial;&quot;&gt;&amp;nbsp;1&lt;/span&gt;" style="rounded=0;whiteSpace=wrap;html=1;" vertex="1" parent="1">
          <mxGeometry x="-430" y="279" width="160" height="40" as="geometry" />
        </mxCell>
        <mxCell id="jki05cI2nz15I3PhLBkj-11" value="Msg Publisher 2" style="rounded=0;whiteSpace=wrap;html=1;" vertex="1" parent="1">
          <mxGeometry x="-430" y="339" width="160" height="40" as="geometry" />
        </mxCell>
        <mxCell id="jki05cI2nz15I3PhLBkj-12" value="Msg Publisher 3" style="rounded=0;whiteSpace=wrap;html=1;" vertex="1" parent="1">
          <mxGeometry x="-430" y="399" width="160" height="40" as="geometry" />
        </mxCell>
        <mxCell id="jki05cI2nz15I3PhLBkj-17" value="Message&lt;div&gt;&amp;nbsp;Queue N&lt;/div&gt;" style="strokeWidth=2;html=1;shape=mxgraph.flowchart.direct_data;whiteSpace=wrap;" vertex="1" parent="1">
          <mxGeometry y="399" width="107" height="60" as="geometry" />
        </mxCell>
        <mxCell id="jki05cI2nz15I3PhLBkj-5" value="Message&amp;nbsp;&lt;div&gt;Queue 1&lt;/div&gt;" style="strokeWidth=2;html=1;shape=mxgraph.flowchart.direct_data;whiteSpace=wrap;" vertex="1" parent="1">
          <mxGeometry y="299" width="107" height="60" as="geometry" />
        </mxCell>
        <mxCell id="jki05cI2nz15I3PhLBkj-27" value="&lt;font style=&quot;font-size: 18px;&quot;&gt;Routing&lt;/font&gt;" style="rounded=0;whiteSpace=wrap;html=1;" vertex="1" parent="1">
          <mxGeometry x="-159" y="269" width="120" height="230" as="geometry" />
        </mxCell>
        <mxCell id="jki05cI2nz15I3PhLBkj-29" value="" style="endArrow=classic;html=1;rounded=0;exitX=1.01;exitY=0.164;exitDx=0;exitDy=0;exitPerimeter=0;entryX=0;entryY=0.25;entryDx=0;entryDy=0;" edge="1" parent="1" source="jki05cI2nz15I3PhLBkj-9" target="jki05cI2nz15I3PhLBkj-27">
          <mxGeometry width="50" height="50" relative="1" as="geometry">
            <mxPoint x="-150" y="599" as="sourcePoint" />
            <mxPoint x="-100" y="549" as="targetPoint" />
          </mxGeometry>
        </mxCell>
        <mxCell id="jki05cI2nz15I3PhLBkj-30" value="" style="endArrow=classic;html=1;rounded=0;entryX=-0.008;entryY=0.43;entryDx=0;entryDy=0;entryPerimeter=0;exitX=1.01;exitY=0.441;exitDx=0;exitDy=0;exitPerimeter=0;" edge="1" parent="1" source="jki05cI2nz15I3PhLBkj-9" target="jki05cI2nz15I3PhLBkj-27">
          <mxGeometry width="50" height="50" relative="1" as="geometry">
            <mxPoint x="-245" y="369" as="sourcePoint" />
            <mxPoint x="-100" y="549" as="targetPoint" />
          </mxGeometry>
        </mxCell>
        <mxCell id="jki05cI2nz15I3PhLBkj-31" value="" style="endArrow=classic;html=1;rounded=0;exitX=1;exitY=0.75;exitDx=0;exitDy=0;entryX=0.017;entryY=0.609;entryDx=0;entryDy=0;entryPerimeter=0;" edge="1" parent="1" source="jki05cI2nz15I3PhLBkj-9" target="jki05cI2nz15I3PhLBkj-27">
          <mxGeometry width="50" height="50" relative="1" as="geometry">
            <mxPoint x="-150" y="599" as="sourcePoint" />
            <mxPoint x="-100" y="549" as="targetPoint" />
          </mxGeometry>
        </mxCell>
        <mxCell id="jki05cI2nz15I3PhLBkj-34" value="Subscriber Group 1&lt;div&gt;&lt;br&gt;&lt;/div&gt;&lt;div&gt;&lt;br&gt;&lt;/div&gt;&lt;div&gt;&lt;br&gt;&lt;/div&gt;&lt;div&gt;&lt;br&gt;&lt;/div&gt;&lt;div&gt;&lt;br&gt;&lt;/div&gt;&lt;div&gt;&lt;br&gt;&lt;/div&gt;&lt;div&gt;&lt;br&gt;&lt;/div&gt;&lt;div&gt;&lt;br&gt;&lt;/div&gt;&lt;div&gt;&lt;br&gt;&lt;/div&gt;&lt;div&gt;...&lt;/div&gt;&lt;div&gt;&lt;br&gt;&lt;/div&gt;&lt;div&gt;&lt;br&gt;&lt;/div&gt;&lt;div&gt;&lt;br&gt;&lt;/div&gt;&lt;div&gt;&lt;br&gt;&lt;/div&gt;&lt;div&gt;&lt;br&gt;&lt;/div&gt;" style="rounded=0;whiteSpace=wrap;html=1;" vertex="1" parent="1">
          <mxGeometry x="280" y="69" width="190" height="230" as="geometry" />
        </mxCell>
        <mxCell id="jki05cI2nz15I3PhLBkj-35" value="Subscriber1-1" style="rounded=1;whiteSpace=wrap;html=1;" vertex="1" parent="1">
          <mxGeometry x="310" y="99" width="130" height="40" as="geometry" />
        </mxCell>
        <mxCell id="jki05cI2nz15I3PhLBkj-41" value="Subscriber1-2" style="rounded=1;whiteSpace=wrap;html=1;" vertex="1" parent="1">
          <mxGeometry x="310" y="158" width="130" height="40" as="geometry" />
        </mxCell>
        <mxCell id="jki05cI2nz15I3PhLBkj-42" value="Subscriber1-N" style="rounded=1;whiteSpace=wrap;html=1;" vertex="1" parent="1">
          <mxGeometry x="310" y="240" width="130" height="40" as="geometry" />
        </mxCell>
        <mxCell id="jki05cI2nz15I3PhLBkj-43" value="" style="endArrow=classic;html=1;rounded=0;entryX=-0.008;entryY=0.463;entryDx=0;entryDy=0;entryPerimeter=0;" edge="1" parent="1" target="jki05cI2nz15I3PhLBkj-34">
          <mxGeometry width="50" height="50" relative="1" as="geometry">
            <mxPoint x="130" y="320" as="sourcePoint" />
            <mxPoint x="180" y="270" as="targetPoint" />
          </mxGeometry>
        </mxCell>
        <mxCell id="jki05cI2nz15I3PhLBkj-44" value="Push" style="edgeLabel;html=1;align=center;verticalAlign=middle;resizable=0;points=[];" vertex="1" connectable="0" parent="jki05cI2nz15I3PhLBkj-43">
          <mxGeometry x="-0.0781" y="-3" relative="1" as="geometry">
            <mxPoint as="offset" />
          </mxGeometry>
        </mxCell>
        <mxCell id="jki05cI2nz15I3PhLBkj-45" value="Subscriber Group N&lt;div&gt;&lt;br&gt;&lt;/div&gt;&lt;div&gt;&lt;br&gt;&lt;/div&gt;&lt;div&gt;&lt;br&gt;&lt;/div&gt;&lt;div&gt;&lt;br&gt;&lt;/div&gt;&lt;div&gt;&lt;br&gt;&lt;/div&gt;&lt;div&gt;&lt;br&gt;&lt;/div&gt;&lt;div&gt;&lt;br&gt;&lt;/div&gt;&lt;div&gt;&lt;br&gt;&lt;/div&gt;&lt;div&gt;&lt;br&gt;&lt;/div&gt;&lt;div&gt;...&lt;/div&gt;&lt;div&gt;&lt;br&gt;&lt;/div&gt;&lt;div&gt;&lt;br&gt;&lt;/div&gt;&lt;div&gt;&lt;br&gt;&lt;/div&gt;&lt;div&gt;&lt;br&gt;&lt;/div&gt;&lt;div&gt;&lt;br&gt;&lt;/div&gt;" style="rounded=0;whiteSpace=wrap;html=1;" vertex="1" parent="1">
          <mxGeometry x="280" y="379" width="190" height="230" as="geometry" />
        </mxCell>
        <mxCell id="jki05cI2nz15I3PhLBkj-46" value="SubscriberN-1" style="rounded=1;whiteSpace=wrap;html=1;" vertex="1" parent="1">
          <mxGeometry x="310" y="409" width="130" height="40" as="geometry" />
        </mxCell>
        <mxCell id="jki05cI2nz15I3PhLBkj-47" value="SubscriberN-2" style="rounded=1;whiteSpace=wrap;html=1;" vertex="1" parent="1">
          <mxGeometry x="310" y="468" width="130" height="40" as="geometry" />
        </mxCell>
        <mxCell id="jki05cI2nz15I3PhLBkj-48" value="SubscriberN-N" style="rounded=1;whiteSpace=wrap;html=1;" vertex="1" parent="1">
          <mxGeometry x="310" y="550" width="130" height="40" as="geometry" />
        </mxCell>
        <mxCell id="jki05cI2nz15I3PhLBkj-49" value="" style="endArrow=classic;html=1;rounded=0;entryX=-0.008;entryY=0.463;entryDx=0;entryDy=0;entryPerimeter=0;exitX=0.998;exitY=0.589;exitDx=0;exitDy=0;exitPerimeter=0;" edge="1" parent="1" target="jki05cI2nz15I3PhLBkj-45" source="jki05cI2nz15I3PhLBkj-26">
          <mxGeometry width="50" height="50" relative="1" as="geometry">
            <mxPoint x="130" y="630" as="sourcePoint" />
            <mxPoint x="180" y="580" as="targetPoint" />
          </mxGeometry>
        </mxCell>
        <mxCell id="jki05cI2nz15I3PhLBkj-50" value="Push" style="edgeLabel;html=1;align=center;verticalAlign=middle;resizable=0;points=[];" vertex="1" connectable="0" parent="jki05cI2nz15I3PhLBkj-49">
          <mxGeometry x="-0.0781" y="-3" relative="1" as="geometry">
            <mxPoint as="offset" />
          </mxGeometry>
        </mxCell>
        <mxCell id="jki05cI2nz15I3PhLBkj-51" value="&lt;font style=&quot;font-size: 18px;&quot;&gt;...&lt;/font&gt;" style="text;html=1;align=center;verticalAlign=middle;resizable=0;points=[];autosize=1;strokeColor=none;fillColor=none;" vertex="1" parent="1">
          <mxGeometry x="350" y="313" width="40" height="40" as="geometry" />
        </mxCell>
        <mxCell id="jki05cI2nz15I3PhLBkj-52" value="产业一&lt;div&gt;订阅消息&lt;/div&gt;" style="rounded=0;whiteSpace=wrap;html=1;" vertex="1" parent="1">
          <mxGeometry x="560" y="69" width="120" height="60" as="geometry" />
        </mxCell>
        <mxCell id="jki05cI2nz15I3PhLBkj-53" value="产业二&lt;div&gt;订阅消息&lt;/div&gt;" style="rounded=0;whiteSpace=wrap;html=1;" vertex="1" parent="1">
          <mxGeometry x="560" y="154" width="120" height="60" as="geometry" />
        </mxCell>
        <mxCell id="jki05cI2nz15I3PhLBkj-54" value="产业N&lt;div&gt;订阅消息&lt;/div&gt;" style="rounded=0;whiteSpace=wrap;html=1;" vertex="1" parent="1">
          <mxGeometry x="560" y="240" width="120" height="60" as="geometry" />
        </mxCell>
        <mxCell id="jki05cI2nz15I3PhLBkj-55" value="" style="endArrow=classic;html=1;rounded=0;" edge="1" parent="1">
          <mxGeometry width="50" height="50" relative="1" as="geometry">
            <mxPoint x="470" y="110" as="sourcePoint" />
            <mxPoint x="560" y="110" as="targetPoint" />
          </mxGeometry>
        </mxCell>
        <mxCell id="jki05cI2nz15I3PhLBkj-56" value="" style="endArrow=classic;html=1;rounded=0;" edge="1" parent="1">
          <mxGeometry width="50" height="50" relative="1" as="geometry">
            <mxPoint x="470" y="183.57999999999998" as="sourcePoint" />
            <mxPoint x="560" y="183.57999999999998" as="targetPoint" />
          </mxGeometry>
        </mxCell>
        <mxCell id="jki05cI2nz15I3PhLBkj-57" value="" style="endArrow=classic;html=1;rounded=0;" edge="1" parent="1">
          <mxGeometry width="50" height="50" relative="1" as="geometry">
            <mxPoint x="470" y="269.58000000000004" as="sourcePoint" />
            <mxPoint x="560" y="269.58000000000004" as="targetPoint" />
          </mxGeometry>
        </mxCell>
        <mxCell id="jki05cI2nz15I3PhLBkj-59" value="&lt;font style=&quot;font-size: 14px;&quot;&gt;Database&lt;/font&gt;" style="strokeWidth=2;html=1;shape=mxgraph.flowchart.database;whiteSpace=wrap;" vertex="1" parent="1">
          <mxGeometry x="50" y="609" width="140" height="90" as="geometry" />
        </mxCell>
        <mxCell id="jki05cI2nz15I3PhLBkj-60" style="edgeStyle=orthogonalEdgeStyle;rounded=0;orthogonalLoop=1;jettySize=auto;html=1;entryX=1.006;entryY=0.59;entryDx=0;entryDy=0;entryPerimeter=0;exitX=1;exitY=0.5;exitDx=0;exitDy=0;" edge="1" parent="1" source="jki05cI2nz15I3PhLBkj-45" target="jki05cI2nz15I3PhLBkj-59">
          <mxGeometry relative="1" as="geometry" />
        </mxCell>
        <mxCell id="jki05cI2nz15I3PhLBkj-68" value="update message" style="edgeLabel;html=1;align=center;verticalAlign=middle;resizable=0;points=[];" vertex="1" connectable="0" parent="jki05cI2nz15I3PhLBkj-60">
          <mxGeometry x="0.1955" y="2" relative="1" as="geometry">
            <mxPoint as="offset" />
          </mxGeometry>
        </mxCell>
        <mxCell id="jki05cI2nz15I3PhLBkj-70" style="edgeStyle=orthogonalEdgeStyle;rounded=0;orthogonalLoop=1;jettySize=auto;html=1;" edge="1" parent="1" source="jki05cI2nz15I3PhLBkj-61" target="jki05cI2nz15I3PhLBkj-59">
          <mxGeometry relative="1" as="geometry" />
        </mxCell>
        <mxCell id="jki05cI2nz15I3PhLBkj-71" value="Query" style="edgeLabel;html=1;align=center;verticalAlign=middle;resizable=0;points=[];" vertex="1" connectable="0" parent="jki05cI2nz15I3PhLBkj-70">
          <mxGeometry x="0.17" y="-1" relative="1" as="geometry">
            <mxPoint as="offset" />
          </mxGeometry>
        </mxCell>
        <mxCell id="jki05cI2nz15I3PhLBkj-61" value="&lt;span style=&quot;color: rgb(51, 51, 51); font-family: ui-sans-serif, system-ui, -apple-system, &amp;quot;system-ui&amp;quot;, &amp;quot;Segoe UI&amp;quot;, Roboto, &amp;quot;Helvetica Neue&amp;quot;, Arial, &amp;quot;Noto Sans&amp;quot;, sans-serif, &amp;quot;Apple Color Emoji&amp;quot;, &amp;quot;Segoe UI Emoji&amp;quot;, &amp;quot;Segoe UI Symbol&amp;quot;, &amp;quot;Noto Color Emoji&amp;quot;; text-align: start; white-space-collapse: preserve-breaks; background-color: rgb(255, 255, 255);&quot;&gt;&lt;font style=&quot;font-size: 14px;&quot;&gt;Logistics inquiry service&lt;/font&gt;&lt;/span&gt;" style="whiteSpace=wrap;html=1;aspect=fixed;" vertex="1" parent="1">
          <mxGeometry x="-190" y="584" width="140" height="140" as="geometry" />
        </mxCell>
        <mxCell id="jki05cI2nz15I3PhLBkj-67" style="edgeStyle=orthogonalEdgeStyle;rounded=0;orthogonalLoop=1;jettySize=auto;html=1;entryX=0;entryY=0.5;entryDx=0;entryDy=0;" edge="1" parent="1" source="jki05cI2nz15I3PhLBkj-66" target="jki05cI2nz15I3PhLBkj-61">
          <mxGeometry relative="1" as="geometry" />
        </mxCell>
        <mxCell id="jki05cI2nz15I3PhLBkj-66" value="" style="image;aspect=fixed;html=1;points=[];align=center;fontSize=12;image=img/lib/azure2/identity/Users.svg;" vertex="1" parent="1">
          <mxGeometry x="-400.86" y="624" width="54.86" height="60" as="geometry" />
        </mxCell>
      </root>
    </mxGraphModel>
  </diagram>
</mxfile>
